<svg width="192" height="192" viewBox="0 0 512 512" xmlns="http://www.w3.org/2000/svg">
  <defs>
    <linearGradient id="tileFill192" x1="0%" y1="0%" x2="100%" y2="100%">
      <stop offset="0%" stop-color="#ffffff"/>
      <stop offset="100%" stop-color="#eef2ff"/>
    </linearGradient>
    <linearGradient id="tileEdge192" x1="0%" y1="0%" x2="100%" y2="100%">
      <stop offset="0%" stop-color="#c7d2fe"/>
      <stop offset="100%" stop-color="#93c5fd"/>
    </linearGradient>
    <linearGradient id="facetA192" x1="0%" y1="0%" x2="100%" y2="100%">
      <stop offset="0%" stop-color="#8b5cf6"/>
      <stop offset="100%" stop-color="#6b8aff"/>
    </linearGradient>
    <linearGradient id="facetB192" x1="0%" y1="0%" x2="100%" y2="100%">
      <stop offset="0%" stop-color="#7c3aed"/>
      <stop offset="100%" stop-color="#4f46e5"/>
    </linearGradient>
    <linearGradient id="facetC192" x1="0%" y1="0%" x2="100%" y2="100%">
      <stop offset="0%" stop-color="#60a5fa"/>
      <stop offset="100%" stop-color="#4338ca"/>
    </linearGradient>
    <linearGradient id="facetD192" x1="0%" y1="0%" x2="100%" y2="100%">
      <stop offset="0%" stop-color="#4f46e5"/>
      <stop offset="100%" stop-color="#312e81"/>
    </linearGradient>
  </defs>
  <rect x="56" y="56" width="400" height="400" rx="112" fill="url(#tileFill192)" stroke="url(#tileEdge192)" stroke-width="10"/>
  <g transform="translate(96 76)">
    <polygon points="40,94 106,42 120,144 62,176" fill="url(#facetA192)"/>
    <polygon points="120,144 164,110 194,176 142,220" fill="url(#facetB192)"/>
    <polygon points="106,42 182,18 212,96 120,144" fill="url(#facetC192)"/>
    <polygon points="212,96 284,48 286,172 194,176" fill="url(#facetA192)"/>
    <polygon points="62,176 120,144 120,284 60,318" fill="url(#facetD192)"/>
    <polygon points="120,144 194,176 168,292 120,284" fill="url(#facetA192)"/>
    <polygon points="194,176 286,172 288,298 204,324" fill="url(#facetB192)"/>
    <polygon points="60,318 120,284 120,372 52,410" fill="url(#facetB192)"/>
    <polygon points="120,284 168,292 170,384 120,372" fill="url(#facetC192)"/>
    <polygon points="204,324 288,298 288,404 220,430" fill="url(#facetD192)"/>
    <polygon points="286,172 332,136 334,234 298,258" fill="url(#facetC192)"/>
    <path d="M120 144L194 176M120 284L194 176M120 284L168 292M212 96L194 176M286 172L194 176" fill="none" stroke="#dbeafe" stroke-opacity=".72" stroke-width="6" stroke-linecap="round"/>
  </g>
</svg>
