<svg xmlns="http://www.w3.org/2000/svg" width="192" height="192" viewBox="0 0 192 192">
  <rect width="192" height="192" rx="44" fill="#08111f"/>
  <rect x="14" y="14" width="164" height="164" rx="36" fill="#102039" stroke="#30d7ff" stroke-opacity=".3"/>
  <rect x="32" y="40" width="34" height="112" rx="14" fill="#102541" stroke="#74e3ff" stroke-opacity=".24"/>
  <rect x="126" y="40" width="34" height="112" rx="14" fill="#102541" stroke="#74e3ff" stroke-opacity=".24"/>
  <path d="M57 132V60h12l35 42V60h13v72h-12L70 90v42Z" fill="#f4f8ff"/>
  <rect x="39" y="51" width="20" height="8" rx="4" fill="#1de29a"/>
  <rect x="39" y="67" width="20" height="8" rx="4" fill="#1de29a" opacity=".68"/>
  <rect x="39" y="83" width="16" height="8" rx="4" fill="#1de29a" opacity=".42"/>
  <rect x="133" y="50" width="20" height="20" rx="7" fill="#f1a81d"/>
  <rect x="133" y="82" width="20" height="20" rx="7" fill="#18304f"/>
  <rect x="133" y="114" width="20" height="20" rx="7" fill="#18304f"/>
</svg>
