<svg xmlns="http://www.w3.org/2000/svg" width="192" height="192" viewBox="0 0 192 192">
  <defs>
    <linearGradient id="shell192" x1="0%" y1="0%" x2="100%" y2="100%">
      <stop offset="0%" stop-color="#05070d"/>
      <stop offset="100%" stop-color="#111722"/>
    </linearGradient>
    <linearGradient id="line192" x1="0%" y1="0%" x2="100%" y2="100%">
      <stop offset="0%" stop-color="#cfe7ff"/>
      <stop offset="100%" stop-color="#f7fbff"/>
    </linearGradient>
    <linearGradient id="accent192" x1="0%" y1="0%" x2="100%" y2="100%">
      <stop offset="0%" stop-color="#26d7ff"/>
      <stop offset="100%" stop-color="#1195f3"/>
    </linearGradient>
  </defs>
  <rect width="192" height="192" rx="44" fill="url(#shell192)"/>
  <rect x="20" y="20" width="152" height="152" rx="32" fill="none" stroke="#ffffff" stroke-opacity=".08" stroke-width="2"/>
  <path
    d="M96 36 120 51 120 69 107 69 96 54 85 69 72 69 72 51Z
       M55 64 79 64 89 80 80 94 67 85 58 100 67 115 80 106 89 120 79 136 55 136 41 112 50 99 41 86Z
       M137 64 151 86 142 99 151 112 137 136 113 136 103 120 112 106 125 115 134 100 125 85 112 94 103 80 113 64Z
       M83 89 96 79 109 89 102 101 96 92 90 101Z
       M84 108 96 128 108 108 102 101 96 111 90 101Z"
    fill="url(#line192)"
  />
  <path d="M96 79 109 92 83 92Z" fill="url(#accent192)"/>
  <path d="M42 38h6v34h-6zm11 0h6v46h-6zm11 0h6v28h-6z" fill="url(#accent192)"/>
</svg>
