<svg width="512" height="512" viewBox="0 0 512 512" fill="none" xmlns="http://www.w3.org/2000/svg" role="img" aria-labelledby="title desc">
  <title id="title">Nexus 10</title>
  <desc id="desc">Logo do Nexus 10 com base arredondada translúcida e símbolo geométrico violeta com conexões luminosas.</desc>
  <defs>
    <radialGradient id="outerGlow" cx="0" cy="0" r="1" gradientUnits="userSpaceOnUse" gradientTransform="translate(256 256) rotate(90) scale(210 210)">
      <stop offset="0" stop-color="#A855F7" stop-opacity="0.52"/>
      <stop offset="0.42" stop-color="#7C3AED" stop-opacity="0.34"/>
      <stop offset="1" stop-color="#7C3AED" stop-opacity="0"/>
    </radialGradient>
    <radialGradient id="tileGlow" cx="0" cy="0" r="1" gradientUnits="userSpaceOnUse" gradientTransform="translate(256 230) rotate(90) scale(190 185)">
      <stop offset="0" stop-color="#FFFFFF" stop-opacity="0.28"/>
      <stop offset="0.55" stop-color="#C4B5FD" stop-opacity="0.18"/>
      <stop offset="1" stop-color="#FFFFFF" stop-opacity="0.02"/>
    </radialGradient>
    <linearGradient id="tileFill" x1="128" y1="96" x2="384" y2="416" gradientUnits="userSpaceOnUse">
      <stop stop-color="#FFFFFF" stop-opacity="0.24"/>
      <stop offset="1" stop-color="#F8FAFC" stop-opacity="0.12"/>
    </linearGradient>
    <linearGradient id="tileStroke" x1="144" y1="104" x2="380" y2="408" gradientUnits="userSpaceOnUse">
      <stop stop-color="#FFFFFF" stop-opacity="0.72"/>
      <stop offset="1" stop-color="#E9D5FF" stop-opacity="0.54"/>
    </linearGradient>
    <linearGradient id="shapeA" x1="170" y1="188" x2="248" y2="360" gradientUnits="userSpaceOnUse">
      <stop stop-color="#8B5CF6"/>
      <stop offset="1" stop-color="#4C1D95"/>
    </linearGradient>
    <linearGradient id="shapeB" x1="228" y1="152" x2="360" y2="330" gradientUnits="userSpaceOnUse">
      <stop stop-color="#A78BFA"/>
      <stop offset="1" stop-color="#5B21B6"/>
    </linearGradient>
    <linearGradient id="shapeC" x1="300" y1="158" x2="376" y2="276" gradientUnits="userSpaceOnUse">
      <stop stop-color="#8B5CF6"/>
      <stop offset="1" stop-color="#6D28D9"/>
    </linearGradient>
    <linearGradient id="shapeD" x1="296" y1="214" x2="384" y2="342" gradientUnits="userSpaceOnUse">
      <stop stop-color="#7C3AED"/>
      <stop offset="1" stop-color="#5B21B6"/>
    </linearGradient>
    <linearGradient id="linkStroke" x1="156" y1="286" x2="360" y2="220" gradientUnits="userSpaceOnUse">
      <stop stop-color="#7C3AED"/>
      <stop offset="1" stop-color="#A78BFA"/>
    </linearGradient>
    <filter id="softBlur" x="74" y="42" width="364" height="428" filterUnits="userSpaceOnUse" color-interpolation-filters="sRGB">
      <feGaussianBlur stdDeviation="30"/>
    </filter>
  </defs>

  <g filter="url(#softBlur)">
    <rect x="144" y="112" width="224" height="288" rx="54" fill="url(#outerGlow)"/>
  </g>

  <rect x="106" y="78" width="300" height="356" rx="66" fill="url(#tileFill)"/>
  <rect x="106.75" y="78.75" width="298.5" height="354.5" rx="65.25" stroke="url(#tileStroke)" stroke-width="1.5"/>
  <rect x="128" y="100" width="256" height="312" rx="56" fill="url(#tileGlow)"/>

  <g>
    <path d="M174 208L228 170V334L170 366V248L174 208Z" fill="url(#shapeA)"/>
    <path d="M192 194L248 150L248 264L228 286L192 246V194Z" fill="url(#shapeB)"/>
    <path d="M248 150L340 246V334L248 246V150Z" fill="url(#shapeB)"/>
    <path d="M300 190L370 160L370 250L330 318L300 286V190Z" fill="url(#shapeC)"/>
    <path d="M300 218L370 180L370 318L300 246V218Z" fill="url(#shapeD)"/>
    <path d="M248 246L326 324L286 352L248 312V246Z" fill="url(#shapeA)"/>
  </g>

  <g stroke="url(#linkStroke)" stroke-width="11" stroke-linecap="round" stroke-linejoin="round">
    <path d="M176 288L230 262"/>
    <path d="M230 180V262"/>
    <path d="M230 262L308 236"/>
    <path d="M308 236V338"/>
    <path d="M308 236L370 198"/>
  </g>

  <g>
    <circle cx="230" cy="262" r="19" fill="#FFFFFF"/>
    <circle cx="308" cy="236" r="16" fill="#FFFFFF"/>
    <circle cx="176" cy="288" r="16" fill="#7C3AED"/>
    <circle cx="230" cy="180" r="16" fill="#8B5CF6"/>
    <circle cx="308" cy="338" r="16" fill="#6D28D9"/>
    <circle cx="370" cy="198" r="16" fill="#8B5CF6"/>
  </g>
</svg>
